<?xml version="1.0" encoding="UTF-8"?>
<svg version="1.1" viewBox="0 0 1200 1200" width="1200" height="1200" xmlns="http://www.w3.org/2000/svg">
<path transform="translate(606,202)" d="m0 0h6l5 4 1 3v64l-4 13-7 10-10 9-11 5h-4v19h9l11 2 8 6 5 6 3 8v48l-4 10-7 7-10 4h-16l-3 13-8 16-8 11-13 13-14 9-11 5-5 1v5h27l15 3 14 6 11 7 12 11 4 5v8l-5 5h-7l-10-9-10-8-11-5-16-4-26-1-2 9-6 10-8 8-10 6-10 3h-16l-10-3-10-6-7-6-6-10-3-7v-4l-28 1-13 3-14 7-11 9-9 13-5 12-2 8v160l4 4 104 1v-36h-49l-10-3-7-5-5-8-2-7v-62l2-4 3-2h8l5 5 1 61 2 4 2 1 77 1 14 2 12 6 8 7 2 3h27l1-86 5-4h7l5 4 1 3 1 60 15-50 16-53 6-10 9-6 5-2 7-1h224l10 2 9 6 5 8 1 4v12l-25 90-17 61-6 9-8 6-6 2h-462l-12-6-6-8-2-6-1-157 2-14 5-15 8-14 11-12 8-7 14-8 14-5 12-2h26l-1-28-9-10-8-13-6-16-3-17v-149l3-12 6-10 9-9 14-7 14-2 122-1 13-4zm-7 24-21 9-8 2-10 1-121 1-9 4-6 5-5 10-1 5v53l4-2 13-12 12-6 10-2 122-1 8-3 8-7 4-8 1-4v-45zm-142 85-9 3-6 4-24 24v5l1 1h19l7-11 8-5 11-2 100-1v-18zm3 37-5 5v44l5 5h15l-1-4v-50zm36 0-5 5v43l5 6h98l5-4 1-2v-42l-2-4-3-2zm-78 18v18h19v-18zm0 36 2 17 4 12 6 11 7 9 8 8 13 8 12 5 8 2 9 1h10l15-3 12-5 11-7 11-10 7-10 6-12 2-8-103-1-10-4-7-8-2-5zm28 79v28l4 9 4 5 12 6h13l10-4 7-7 4-10v-16h-17l-16-3-16-6zm172 85-4 4-8 25-36 120v7l3 5 3 2h231l5-3 5-16 27-97 11-40-1-5-2-2zm-145 127v36h36v-15l-4-10-7-7-10-4zm54 18v18h27l-1-12 1-6z" fill="#4D67C8"/>
<path transform="translate(658,275)" d="m0 0h193l9 4 8 7 4 10v158l-3 8-7 8-9 4-5 1-61 1-24 48-4 4-2 1h-6l-5-5-10-19-9-19-5-10-61-1-9-2-6-4-7-8-3-10v-153l4-11 5-6 9-5zm4 18-6 3-2 5v147l3 7 2 1 68 1 6 2 16 32 5 9 3-4 18-36 2-2 5-1 68-1 4-5v-152l-4-5-3-1z" fill="#4C66C8"/>
<path transform="translate(749,312)" d="m0 0h9l74 37 5 6v41l-4 5-2 1h-7l-5-5-1-25-60 30-9-1-72-36-4-5v-7l4-5zm4 19-23 11-28 14 3 3 48 24 6-2 23-11 17-9 7-3v-2l-50-25z" fill="#4B65C8"/>
<path transform="translate(325,807)" d="m0 0h17l1 83 3 9 5 6 10 4h15l10-4 7-8 3-9 1-81h12v82l-3 10-6 10-7 6-12 5-6 1h-15l-12-3-10-6-7-9-3-8-1-6-1-74z" fill="#4B65C8"/>
<path transform="translate(703,611)" d="m0 0h11l10 3 8 5 7 7 5 10 1 4v14l-4 11-7 9-8 6-9 3-5 1h-7l-13-4-9-7-6-8-4-10v-16l4-10 7-9 9-6zm2 18-8 4-5 6-1 3v10l3 6 7 6 3 1h10l6-3 6-7 1-3v-9l-4-8-5-4-5-2z" fill="#4C66C8"/>
<path transform="translate(842,841)" d="m0 0h13l10 4 6 7 2 6 1 48 1 3 9-1 2 4v5l-12 4-7-1-5-5-2-3-9 6-8 3h-10l-8-3-7-8-1-4v-11l3-7 5-5 6-4 15-4 14-1v-11l-3-8-5-3h-9l-10 3-8 5-5-8v-2l8-5 9-3zm5 44-10 3-5 4-2 4v8l4 5 3 1h10l9-6 4-8 1-11z" fill="#4C66C8"/>
<path transform="translate(648,841)" d="m0 0h12l11 4 6 5 4 6 2 6v14l-4 4h-45l2 12 5 10 7 6 3 1h12l12-5 3 1 4 8-9 5-10 3h-13l-10-3-6-4-7-7-5-11-1-4v-20l4-13 6-8 8-7zm2 10-8 5-6 9-1 5h34l1-1-1-9-5-7-4-2z" fill="#4C65C8"/>
<path transform="translate(715,393)" d="m0 0h6l4 2 2 4 1 15 2 4 2 1h45l3-3 1-4 1-14 3-4 8-1 5 3 2 4v15l-3 9-4 6-6 5-7 3-8 1h-36l-11-2-9-6-6-10-1-4v-19l4-4z" fill="#4E67C9"/>
<path transform="translate(466,841)" d="m0 0h10l10 4 6 8 2 7v59h-12l-1-49-2-12-5-4-7-1-9 3-9 6-1 57h-13l-1-61-3-12-1-3 14-1 3 9 11-7z" fill="#4B65C8"/>
<path transform="translate(548,842)" d="m0 0h14l19 55 1 2 19-55 1-2h12l-3 11-17 48-7 19h-12l-7-19-17-49z" fill="#4C65C8"/>
<path transform="translate(774,841)" d="m0 0h12l13 4 1 3-4 8-10-4h-11l-6 3-2 3v6l4 6 22 12 5 4 4 8v10l-3 7-5 5-8 4-5 1h-13l-12-4-4-2 2-6 2-3 5 1 7 3h12l6-3 2-4-1-8-6-5-19-10-8-9-1-3v-10l4-8 6-5z" fill="#4B65C8"/>
<path transform="translate(707,841)" d="m0 0h5l3 11h2l8-7 10-4h5l-3 14-9 2-6 4-6 7-1 51h-13l-1-65-3-11 1-1z" fill="#536CCA"/>
<path transform="translate(519,842)" d="m0 0h14v77h-13z" fill="#4B65C8"/>
<path transform="translate(524,807)" d="m0 0 7 1 4 4 1 7-3 5-4 2-8-1-4-6 1-7 4-4z" fill="#4B65C8"/>
<path transform="translate(790,961)" d="m0 0 4 1 5-1 3 1 6-1 2 2v13h-2l-1-11h-4l-1 11h-3l-1-12-4 1-1 11h-3z" fill="#4E68C9"/>
<path transform="translate(764,961)" d="m0 0 4 1 1-1h5 4l6 1 1 3v11h-3l-1-12-4 1-1 11h-3l-1-12-4 1-1 11h-2z" fill="#5069C9"/>
<path transform="translate(550,961)" d="m0 0h10v2h-3l1 4-3 4-4 2 7 1 1 1v5l-4 3h-6l-3-3 1-7 1-4-1-5zm1 2-1 5 4 1 1-5zm-1 13-1 4 1 1h5l2-4-1-1z" fill="#4B65C8"/>
<path transform="translate(588,954)" d="m0 0h3l1 17 2 2h5l2-2 1-17h2v18l-3 3-2 1h-6l-4-3-1-3z" fill="#4C66C8"/>
<path transform="translate(301,954)" d="m0 0h6l2 1v2h-7l-1 5 6 2 3 3v6l-4 3-9-1 1-3 7 1 1-5-8-5-1-5z" fill="#516AC9"/>
<path transform="translate(414,961)" d="m0 0 4 1 1-1h5l3 4v8l-4 4-6-1v7h-2zm5 2-2 2v8l2 2 5-1 1-7-3-4z" fill="#4E67C9"/>
<path transform="translate(397,961)" d="m0 0 4 1 1-1h5l3 4v8l-4 4-6-1v7h-2zm5 2-2 2v8l2 2 5-1 1-7-3-4z" fill="#4E67C9"/>
<path transform="translate(736,954)" d="m0 0 9 1v3l-8-1-4 4v8l4 4 8-1v3l-9 1-5-3-2-4v-8l3-5z" fill="#4C66C8"/>
<path transform="translate(488,954)" d="m0 0h7l3 3-2 1-7-1-3 3-1 2v6l2 4 6 1 4-1v3l-2 1h-7l-6-5-1-9 3-5z" fill="#4C66C8"/>
<path transform="translate(816,961)" d="m0 0h3l1 12 4-1 1-11h3v13h2v2h-12l-2-3z" fill="#4C66C8"/>
<path transform="translate(833,961)" d="m0 0 3 1 6-1 2 1 1 3v11h-3l-1-12-4 1-1 11h-3z" fill="#556DCB"/>
<path transform="translate(610,961)" d="m0 0 3 1 6-1 2 1 1 3v11h-3l-1-12-4 1-1 11h-3z" fill="#556DCB"/>
<path transform="translate(566,961)" d="m0 0h5l3 3-1 5h-8l2 4h6l-1 3h-6l-4-4v-6l2-4zm1 2-2 4h6l-1-4z" fill="#4C66C8"/>
<path transform="translate(536,961)" d="m0 0h5l3 3-1 5h-8l2 4h6l-1 3h-6l-4-4v-6l2-4zm1 2-2 4h6l-1-4z" fill="#4C66C8"/>
<path transform="translate(451,961)" d="m0 0 7 1 2 3v7l-4 4h-5l-4-4v-7zm1 2-3 5 2 5 5 1 2-4-1-5-2-2z" fill="#506AC9"/>
<path transform="translate(317,961)" d="m0 0 7 1 2 3v7l-4 4h-5l-4-4v-7zm1 2-3 5 2 5 5 1 2-4-1-5-2-2z" fill="#506AC9"/>
<path transform="translate(879,961)" d="m0 0 6 1 2 3-1 4h-9l1 4h8l-1 3h-6l-4-3v-8zm1 2-2 4h6l-1-4z" fill="#536BCA"/>
<path transform="translate(385,961)" d="m0 0h5l2 2 1 10 2 2-4 1h-3-5l-2-5 3-3 5-1v-3h-7zm0 9v4l4-1 1-3z" fill="#4D66C8"/>
<path transform="translate(355,961)" d="m0 0h5l2 2 1 10 2 2-4 1h-3-5l-2-5 3-3 5-1v-3h-7zm0 9v4l4-1 1-3z" fill="#4D66C8"/>
<path transform="translate(704,961)" d="m0 0 3 1 3 8 4-9h2l-2 9-4 10-3 3h-3v-2l4-3-2-9z" fill="#4F68C9"/>
<path transform="translate(651,961)" d="m0 0 7 1 2 5-1 2h-9l2 4h7v2l-2 1h-6l-3-3-1-5 3-6zm1 2-2 4h7l-1-4z" fill="#4F68C9"/>
<path transform="translate(752,961)" d="m0 0h5l3 3 1 6-3 5-1 1-7-1-3-5 1-6zm0 2-2 3 1 7 5 1 2-2v-6l-2-3z" fill="#556DCB"/>
<path transform="translate(504,961)" d="m0 0h5l4 5-1 7-3 3-7-1-2-3v-7zm0 2-2 3 1 7 5 1 2-2v-7l-2-2z" fill="#4D66C8"/>
<path transform="translate(525,953)" d="m0 0h3v23h-3z" fill="#4B65C8"/>
<path transform="translate(633,961)" d="m0 0h3l3 9 4-9 3 1-5 14h-3l-5-13z" fill="#5069C9"/>
<path transform="translate(859,957)" d="m0 0h2v4l4 1-4 1v11h3v2l-5-1-1-1v-11h-2v-2l2-1z" fill="#4D67C8"/>
<path transform="translate(697,957)" d="m0 0h2v4h3v2h-3v11h3v2l-5-1-1-1v-11h-2v-2h2z" fill="#4B65C8"/>
<path transform="translate(444,953)" d="m0 0h4v2l-4 1-2 5h4v2h-4v13h-2v-13l-3-1 3-5z" fill="#4D67C8"/>
<path transform="translate(549,972)" d="m0 0 9 2 1 1v5l-4 3h-6l-3-3 2-7zm1 4-1 4 1 1h5l2-4-1-1z" fill="#536BCA"/>
<path transform="translate(677,961)" d="m0 0h5v3l-5-1 2 4 4 2 1 3-3 4-7-1 2-2h4v-2l-6-4 1-5z" fill="#5069C9"/>
<path transform="translate(893,961)" d="m0 0 7 1-2 2h-4v2l6 4-1 5-7 1v-3l5 1v-4l-5-2-1-5z" fill="#4B65C8"/>
<path transform="translate(334,961)" d="m0 0 7 1-2 2h-6v6l2 3h6v2l-7 1-4-4v-7z" fill="#5069C9"/>
<path transform="translate(464,961)" d="m0 0 4 1 4-1-1 3-3 2-1 10h-3z" fill="#4E67C8"/>
<path transform="translate(790,961)" d="m0 0 6 2-2 2-1 11h-3z" fill="#526BCA"/>
<path transform="translate(517,953)" d="m0 0h3v23h-2z" fill="#4B65C8"/>
<path transform="translate(663,961)" d="m0 0 4 1 4-1-1 3-3 2-1 10h-2z" fill="#526BCA"/>
<path transform="translate(368,953)" d="m0 0h2v23h-2z" fill="#4B65C8"/>
<path transform="translate(850,961)" d="m0 0h3v15h-3z" fill="#4B65C8"/>
<path transform="translate(627,961)" d="m0 0h3v15h-3z" fill="#4B65C8"/>
<path transform="translate(725,954)" d="m0 0h2l-3 11-4 11h-2l2-9z" fill="#4F68C9"/>
<path transform="translate(583,954)" d="m0 0h2l-2 9-5 13h-2l3-11z" fill="#4B65C8"/>
<path transform="translate(833,961)" d="m0 0h2l1 2v13h-3z" fill="#4B65C8"/>
<path transform="translate(804,961)" d="m0 0 5 1 1 1v13h-2l-1-11h-4l-1-3z" fill="#5B73CD"/>
<path transform="translate(610,961)" d="m0 0h2l1 2v13h-3z" fill="#4B65C8"/>
<path transform="translate(764,961)" d="m0 0 4 2-1 13h-2z" fill="#4B65C8"/>
<path transform="translate(344,961)" d="m0 0h3v15h-2z" fill="#4B65C8"/>
<path transform="translate(868,961)" d="m0 0h2v15h-2z" fill="#4B65C8"/>
<path transform="translate(688,961)" d="m0 0h2v15h-2z" fill="#4B65C8"/>
<path transform="translate(869,954)" d="m0 0 2 1-1 3-3-1z" fill="#5D74CD"/>
<path transform="translate(851,954)" d="m0 0 2 1v3h-3z" fill="#4B65C8"/>
<path transform="translate(689,954)" d="m0 0 2 1-1 3-3-1z" fill="#5D74CD"/>
<path transform="translate(628,954)" d="m0 0 2 1v3h-3z" fill="#4B65C8"/>
<path transform="translate(345,954)" d="m0 0 2 1v3l-3-1z" fill="#4B65C8"/>
</svg>
